/* XPM */
static const char *AStyle_16_xpm[] = {
/* width height num_colors chars_per_pixel */
"    16    16       16            1",
/* colors */
"` c None",
". c #808080",
"# c #ffffff",
"a c #c0c0c0",
"b c #000000",
"c c #000080",
"d c #0000ff",
"e c #808000",
"f c #ffff00",
"g c #000000",
"h c #000000",
"i c #000000",
"j c #000000",
"k c #000000",
"l c #000000",
"m c #000000",
/* pixels */
"`...........````",
".#.########ab```",
".##.########abcc",
"`.#.#b#bb#b#acdb",
"``..########cdb`",
"```.#bb#b#.cdb``",
"```.######cdbb``",
"```.#b#b.cdbab``",
"```.####cdb#ab``",
"```.###efb#aab``",
"```.##eee#aaab``",
"```.#e###aa#ab``",
"```.####........",
"```.###.######ab",
"````.a.aaaaaaab`",
"`````bbbbbbbbb``"
};
