/* XPM */
static const char *Save_24_xpm[] = {
/* width height num_colors chars_per_pixel */
"    24    24        8            1",
/* colors */
"` c None",
". c #000000",
"# c #808000",
"a c #ffffff",
"b c #800080",
"c c #008080",
"d c #000080",
"e c #800000",
/* pixels */
"````````````````````````",
"````````````````````````",
"``....................``",
"``.##.````````````.`a.``",
"``.##.````````````....``",
"``.##.````````````.##.``",
"``.##.````````````.##.``",
"``.##.````````````.##.``",
"``.##.````````````.##.``",
"``.##.````````````.##.``",
"``.##.````````````.##.``",
"``.##.````````````.##.``",
"``.###............###.``",
"``.##################.``",
"``.##################.``",
"``.###.............##.``",
"``.###.........```.##.``",
"``.###.........```.##.``",
"``.###.........```.##.``",
"``.###.........```.##.``",
"``.###.........```.##.``",
"```..................```",
"````````````````````````",
"````````````````````````"
};
