/* XPM */
static const char *Select_16_xpm[] = {
/* width height num_colors chars_per_pixel */
"    16    16        8            1",
/* colors */
"` c None",
". c #00ffff",
"# c #404040",
"a c #808080",
"b c #800080",
"c c #008080",
"d c #000080",
"e c #008000",
/* pixels */
"````````````````",
"``###`########``",
"````````````````",
"`````#########``",
"````````````````",
"``............``",
"``....aaa.aaaa``",
"``............``",
"``.....aaaaaaa``",
"``............``",
"````````````````",
"`````#########``",
"````````````````",
"``#####`######``",
"````````````````",
"````````````````"
};
