/* XPM */
static const char *White_24_xpm[] = {
/* width height num_colors chars_per_pixel */
"    24    24        8            1",
/* colors */
"` c None",
". c #ffffff",
"# c #000000",
"a c #a6caf0",
"b c #000080",
"c c #800080",
"d c #008080",
"e c #008000",
/* pixels */
"````````````````````````",
"````````````````````````",
"````````````````````````",
"````````````````````````",
"````````````````````````",
"````````````````````````",
"``````############``````",
"``````#..........#``````",
"``````#..........#``````",
"``````#..........#``````",
"``````#..........#``````",
"``````#..........#``````",
"``````#..........#``````",
"``````#..........#``````",
"``````#..........#``````",
"``````#..........#``````",
"``````#..........#``````",
"``````############``````",
"````````````````````````",
"````````````````````````",
"````````````````````````",
"````````````````````````",
"````````````````````````",
"````````````````````````"
};
