/* XPM */
static const char *Block_24_xpm[] = {
/* width height num_colors chars_per_pixel */
"    24    24        8            1",
/* colors */
"` c None",
". c #4040c0",
"# c #a0a0a4",
"a c #800000",
"b c #000080",
"c c #800080",
"d c #008080",
"e c #008000",
/* pixels */
"````````````````````````",
"````````````````````````",
"````````````````````````",
"````````````````````````",
"````````````````````````",
"``````...``````...``````",
"`````..``````````..`````",
"`````..``````````..`````",
"`````..``````````..`````",
"````#..``````````..#````",
"```#..````````````..#```",
"``...``````````````...``",
"```#..````````````..#```",
"````#..``````````..#````",
"`````..``````````..`````",
"`````..``````````..`````",
"`````..``````````..`````",
"``````...``````...``````",
"````````````````````````",
"````````````````````````",
"````````````````````````",
"````````````````````````",
"````````````````````````",
"````````````````````````"
};
