/* XPM */
static const char *Close_16_xpm[] = {
/* width height num_colors chars_per_pixel */
"    16    16        8            1",
/* colors */
"` c None",
". c #ffffff",
"# c #000000",
"a c #808080",
"b c #00ff00",
"c c #800080",
"d c #008080",
"e c #808000",
/* pixels */
"````````````````",
"```########`````",
"```#......##````",
"```#......#.#```",
"```#......####``",
"```#.........#``",
"```#.........#``",
"```#...........`",
"```#....```````a",
"```#....`#```#`a",
"```#....``#`#``a",
"```#....```#```a",
"```#....``#`#``a",
"```####.`#```#`a",
"```````.```````a",
"````````aaaaaaaa"
};
