/* XPM */
static const char *Redo_24_xpm[] = {
/* width height num_colors chars_per_pixel */
"    24    24        8            1",
/* colors */
"` c None",
". c #000080",
"# c #808000",
"a c #008000",
"b c #800080",
"c c #008080",
"d c #800000",
"e c #000080",
/* pixels */
"````````````````````````",
"````````````````````````",
"````````````````````````",
"````````````````````````",
"````````````````````````",
"````````````````````````",
"````````````````````````",
"```````.....````````````",
"`````..`````..``````````",
"````.`````````.````.````",
"```.```````````.``..````",
"```.````````````....````",
"```.````````````....````",
"```.```````````.....````",
"````.`````````......````",
"`````.``````````````````",
"``````..````````````````",
"````````````````````````",
"````````````````````````",
"````````````````````````",
"````````````````````````",
"````````````````````````",
"````````````````````````",
"````````````````````````"
};
