/* XPM */
static const char *All_24_xpm[] = {
/* width height num_colors chars_per_pixel */
"    24    24        8            1",
/* colors */
"` c None",
". c #00ffff",
"# c #404040",
"a c #000080",
"b c #808000",
"c c #008080",
"d c #008000",
"e c #800080",
/* pixels */
"````````````````````````",
"````````````````````````",
"````````````#```````````",
"```````````#.#``````````",
"``````````#...#`````````",
"`````````#.....#````````",
"````````#.......#```````",
"```````####...####``````",
"``````````#...#`````````",
"``````````#...#`````````",
"``````````#...#`````````",
"``````````#...#`````````",
"``````````#...#`````````",
"``````````#...#`````````",
"``````````#...#`````````",
"```````####...####``````",
"````````#.......#```````",
"`````````#.....#````````",
"``````````#...#`````````",
"```````````#.#``````````",
"````````````#```````````",
"````````````````````````",
"````````````````````````",
"````````````````````````"
};
