/* XPM */
static const char *AStyle_32_xpm[] = {
/* width height num_colors chars_per_pixel */
"    32    32       16            1",
/* colors */
"` c None",
". c #808080",
"# c #ffffff",
"a c #c0c0c0",
"b c #000000",
"c c #000080",
"d c #008080",
"e c #0000ff",
"f c #808000",
"g c #ffff00",
"h c #000000",
"i c #000000",
"j c #000000",
"k c #000000",
"l c #000000",
"m c #000000",
/* pixels */
"``......................````````",
"`.#a.aaaaaaaaaaaaaaaaaaa.```````",
".###a.###################b``````",
".####a.##################ab`cccb",
".#a#aa.###################acdeeb",
".a#a#a.##bbb#bb#b#bb#b####cdeecb",
".aaaaa.##aaa#aa#a#aa#####cdeeccf",
"`bbbbb.#################cdeeccfb",
"``````.################cdeeccfb`",
"``````.##b#bb#bb##b###cdeeccfb``",
"``````.##a#aa#aa#####cbeeccfb```",
"``````.#############cdebccfb````",
"``````.############cdeecbfbb````",
"``````.##bbb#bb#b#cdeecbfbab````",
"``````.##aaa#aa#acdeecb#fbab````",
"``````.#########cdeecb##a#ab````",
"``````.##b#bb#bcdeecb##a#aab````",
"``````.##a#aa#cdeecb##a#a#ab````",
"``````.#######bbecb##a#a#aab````",
"``````.##bb#bf#bbb##a#a#a#ab````",
"``````.##aa#f#gfb##a#a#a##ab````",
"``````.####f#gfb##a#a#a###ab````",
"``````.##bf#gfb##a#a#a####ab````",
"``````.##ffffb####a#a#####ab````",
"``````.##f#######a########ab````",
"``````.#######..................",
"``````.#######.###############ab",
"``````.a#a#a#a.#a#a#a#a#a#a#aa.b",
"```````.a#a#a.#a#a#a#a#a#a#aa.b`",
"```````.aaaa.aaaaaaaaaaaaaaaa.b`",
"````````....................bb``",
"``````````bbbbbbbbbbbbbbbbbb````"
};
