/* XPM */
static const char *Close_24_xpm[] = {
/* width height num_colors chars_per_pixel */
"    24    24        8            1",
/* colors */
"` c None",
". c #000000",
"# c #ffffff",
"a c #808080",
"b c #000000",
"c c #000000",
"d c #000000",
"e c #000000",
/* pixels */
"````````````````````````",
"````````````````````````",
"````............````````",
"````.##########..```````",
"````.##########.#.``````",
"````.##########.##.`````",
"````.##########.###.````",
"````.##########......```",
"````.###############.```",
"````.###############.```",
"````.###############.```",
"````.###############.```",
"````.###############.```",
"````.###############.```",
"````.########`````````a`",
"````.########`.`````.`a`",
"````.########``.```.``a`",
"````.########```.`.```a`",
"````.########````.````a`",
"````.########```.`.```a`",
"````.########``.```.``a`",
"````.........`.`````.`a`",
"``````````````````````a`",
"`````````````aaaaaaaaaa`"
};
