/* XPM */
static const char *Select_24_xpm[] = {
/* width height num_colors chars_per_pixel */
"    24    24        8            1",
/* colors */
"` c None",
". c #00ffff",
"# c #404040",
"a c #a0a0a4",
"b c #808080",
"c c #008080",
"d c #800080",
"e c #c0dcc0",
/* pixels */
"````````````````````````",
"```####``############```",
"```aaaa``aaaaaaaaaaaa```",
"````````````````````````",
"```````##############```",
"```````aaaaaaaaaaaaaa```",
"````````````````````````",
"```..................```",
"```..................```",
"```......bbbb..bbbbbb```",
"```......````..`````````",
"```..................```",
"```.......bbbbbbbbbbb```",
"```.......``````````````",
"```..................```",
"```..................```",
"````````````````````````",
"```````##############```",
"```````aaaaaaaaaaaaaa```",
"````````````````````````",
"```#######``#########```",
"```aaaaaaa``aaaaaaaaa```",
"````````````````````````",
"````````````````````````"
};
