/* XPM */
static const char *Source_24_xpm[] = {
/* width height num_colors chars_per_pixel */
"    24    24        8            1",
/* colors */
"` c None",
". c #404040",
"# c #a0a0a4",
"a c #000080",
"b c #808000",
"c c #008080",
"d c #008000",
"e c #800080",
/* pixels */
"````````````````````````",
"```....``............```",
"```####``############```",
"````````````````````````",
"```````..............```",
"```````##############```",
"````````````````````````",
"````````````````````````",
"````````````````````````",
"`````````....``......```",
"`````````####``######```",
"````````````````````````",
"``````````...........```",
"``````````###########```",
"````````````````````````",
"````````````````````````",
"````````````````````````",
"```````..............```",
"```````##############```",
"````````````````````````",
"```.......``.........```",
"```#######``#########```",
"````````````````````````",
"````````````````````````"
};
